PathFileType	4	(X/Y/Z)	paretic_post_fc0300a5.trc
DataRate	CameraRate	NumFrames	NumMarkers	Units	OrigDataRate	OrigDataStartFrame	OrigNumFrames
56.76	56.76	22	11	cm	56.76	217	433
Frame#	Time	NOSE			LEFT_SHOULDER			RIGHT_SHOULDER			LEFT_ELBOW			RIGHT_ELBOW			LEFT_WRIST			RIGHT_WRIST			LEFT_HIP			RIGHT_HIP			LEFT_INDEX			RIGHT_INDEX		
		X1	Y1	Z1	X2	Y2	Z2	X3	Y3	Z3	X4	Y4	Z4	X5	Y5	Z5	X6	Y6	Z6	X7	Y7	Z7	X8	Y8	Z8	X9	Y9	Z9	X10	Y10	Z10	X11	Y11	Z11
252	4.439637096774193	3.329794	-62.845682	-38.529698	6.350009	-51.502723	3.992616	-24.846568	-55.019751	-14.515646	12.155535	-22.421101	6.053349	-22.014430	-13.482953	-23.472141	27.327322	-5.940500	-1.805589	-4.208847	3.073584	-32.299800	10.125246	-3.066020	12.408229	-9.811453	2.477719	-11.960306	29.278619	-3.594734	-6.061373	9.753257	-2.762638	-41.565144
253	4.457254704301075	3.316187	-62.911310	-38.498654	6.359316	-51.518989	4.148577	-24.846701	-55.148135	-14.438623	12.188960	-22.432394	6.247321	-21.919933	-13.620637	-23.403011	27.346189	-5.949198	-1.347661	-4.243272	3.027205	-32.255993	10.123458	-3.064590	12.420033	-9.809979	2.475439	-11.972184	29.294871	-3.610062	-5.572045	9.688476	-2.792365	-41.537856
254	4.474872311827957	3.227384	-62.825741	-38.427648	6.230246	-51.509508	4.107971	-25.014770	-55.067640	-14.373137	11.857448	-22.441094	6.150247	-22.059539	-13.490613	-23.344168	27.184072	-5.963903	-1.610259	-4.429523	3.135948	-32.255619	10.122281	-3.089565	12.415461	-9.809180	2.501204	-11.966329	29.216948	-3.640689	-5.901181	9.438639	-2.720980	-41.539328
255	4.492489919354838	3.250784	-62.932987	-37.811172	6.375314	-51.511297	4.706204	-25.001913	-55.132718	-13.697838	12.128733	-22.448345	6.191415	-22.076180	-13.544167	-23.137759	27.196223	-6.127723	-2.453565	-4.447067	3.084103	-32.274184	10.121221	-3.087783	12.416090	-9.808820	2.497573	-11.966797	29.173002	-3.772054	-7.019684	9.410565	-2.740324	-41.592300
256	4.51010752688172	3.256067	-62.894789	-38.565950	6.378730	-51.478626	4.374430	-25.017333	-55.039675	-13.961111	12.054576	-22.431581	6.100541	-22.166071	-13.520789	-23.189567	27.205750	-6.135954	-2.529729	-4.922260	3.050043	-32.432190	10.119869	-3.093383	12.421591	-9.807666	2.502796	-11.971091	29.235116	-3.812050	-7.144859	8.754984	-2.778245	-41.805043
257	4.527725134408603	3.561747	-63.321963	-36.454286	6.896971	-51.649502	6.076079	-24.782736	-55.589831	-12.314480	13.053627	-22.530651	7.080010	-22.156992	-14.139206	-22.015484	27.943135	-6.351356	-2.063772	-5.205555	2.326220	-32.266593	10.126003	-3.067580	12.436269	-9.813547	2.474204	-11.987366	29.816923	-4.148320	-6.693535	8.300508	-3.428682	-41.720615
258	4.545342741935484	3.875815	-63.303050	-36.299953	7.018463	-51.775417	6.303524	-24.612650	-55.605276	-12.112336	13.097770	-22.829811	7.399108	-22.159619	-14.250767	-21.879960	27.789265	-6.882494	-1.970117	-5.261828	2.218610	-32.167456	10.125317	-3.058889	12.443462	-9.812702	2.465238	-11.997196	29.351088	-4.695714	-6.613994	8.273415	-3.435277	-41.657362
259	4.562960349462366	3.936020	-63.299995	-34.533225	7.041935	-51.855010	7.651528	-24.561129	-55.705096	-10.773641	13.120598	-23.051549	9.141124	-22.379299	-14.428024	-20.866933	27.853380	-6.910560	0.295075	-5.939712	2.031315	-31.301508	10.124384	-3.050560	12.444122	-9.811851	2.456087	-11.997634	29.484908	-4.689430	-4.274583	7.775441	-3.502190	-40.759127
260	4.580577956989248	4.590722	-63.723919	-34.355321	7.315786	-52.557739	7.771616	-23.955194	-56.173329	-10.818352	13.271335	-24.006079	9.474221	-22.145035	-14.944432	-20.817464	28.066163	-7.849764	0.634908	-5.769038	1.419417	-31.268508	10.122937	-3.038718	12.467842	-9.809658	2.444399	-12.025053	29.766767	-5.535815	-3.898859	8.020975	-3.999488	-40.714196
261	4.598195564516129	5.056330	-63.884383	-35.058641	7.631800	-53.037099	7.215441	-23.501987	-56.670287	-11.489120	13.478574	-24.530868	8.990125	-22.149616	-15.838856	-21.482657	28.392315	-8.655437	0.281737	-5.857982	0.765042	-32.086903	10.112891	-3.025926	12.498773	-9.795461	2.430928	-12.062911	30.100227	-6.403443	-4.294771	7.954956	-4.275327	-41.586101
262	4.615813172043011	5.506857	-63.921343	-33.597887	7.682996	-53.300333	8.368987	-23.247852	-57.182107	-10.352738	13.487023	-24.689452	10.219805	-22.168197	-16.214964	-20.551471	28.605388	-8.623388	2.039090	-6.369764	0.543945	-31.236262	10.097949	-3.003681	12.507038	-9.774585	2.410039	-12.073461	30.572016	-6.342302	-2.400433	7.380863	-4.338430	-40.629970
263	4.633430779569893	5.661570	-64.256384	-32.389371	7.815701	-53.624761	9.249407	-23.102744	-57.580608	-9.294346	13.531970	-25.090585	10.429797	-22.276398	-16.864766	-19.962210	28.693326	-8.945980	1.785299	-7.362669	-0.069084	-31.186289	10.097211	-2.977807	12.507233	-9.773521	2.383706	-12.073821	30.704902	-6.482788	-2.684740	6.234525	-4.650147	-40.617944
264	4.6510483870967745	5.942746	-64.874070	-31.804869	7.845697	-54.702663	9.755916	-22.958787	-58.737342	-9.238569	13.550874	-26.704307	10.680641	-22.395691	-18.934346	-20.010943	28.722276	-10.138748	1.977732	-7.980230	-1.908817	-31.359315	10.078695	-2.970598	12.542361	-9.747843	2.376375	-12.116564	30.708323	-7.040270	-2.513724	5.609781	-5.780660	-40.764857
265	4.668665994623656	6.486779	-65.436572	-31.432267	8.462398	-54.791575	10.115985	-22.430292	-58.976557	-8.700578	14.099965	-26.672606	10.794917	-22.405245	-19.499649	-20.037593	28.955931	-10.279122	1.921164	-8.554592	-2.564175	-31.900386	10.072644	-2.961387	12.543277	-9.739350	2.367432	-12.118001	30.817980	-7.269213	-2.618044	4.926350	-6.269681	-41.460578
266	4.686283602150538	7.533275	-66.279294	-30.153404	8.937190	-55.244997	11.162706	-21.584223	-59.537602	-7.946670	14.541330	-27.404675	11.808637	-22.406827	-20.436956	-19.704860	29.955783	-11.141188	2.869436	-8.603383	-3.805104	-31.898855	10.054021	-2.943655	12.560084	-9.714209	2.352506	-12.142367	32.095465	-8.013216	-1.717676	5.004628	-7.364391	-41.461520
267	4.7039012096774195	7.839266	-66.347184	-30.355963	9.517711	-55.144554	11.195634	-21.144840	-59.448075	-7.677631	14.934807	-27.313583	11.766539	-22.413734	-20.382774	-19.636342	30.208267	-11.083510	2.673105	-8.895190	-3.840666	-32.037765	10.051539	-2.917790	12.561049	-9.709124	2.331044	-12.143604	32.270249	-7.972706	-1.932032	4.818321	-7.373473	-41.665046
268	4.721518817204301	8.127584	-66.519395	-30.179307	9.925360	-55.467719	11.352621	-20.822520	-59.793443	-7.610899	15.290477	-27.773998	12.443122	-22.544157	-20.974572	-19.632219	30.447557	-11.587546	3.972834	-9.593098	-4.432635	-32.212675	10.049715	-2.894508	12.565270	-9.705458	2.310257	-12.149853	32.439200	-8.523938	-0.607223	4.115468	-7.830276	-41.861628
269	4.739136424731183	8.669765	-66.424171	-30.313763	10.330353	-55.366595	11.128294	-20.369854	-59.669563	-7.687114	15.657971	-27.585871	12.231977	-22.555230	-20.595477	-19.599382	30.414929	-11.413505	3.603373	-10.096175	-4.090507	-32.209241	10.042487	-2.879717	12.564061	-9.693510	2.297192	-12.150037	32.354167	-8.403537	-1.123602	3.455558	-7.660857	-41.858573
270	4.756754032258065	9.146052	-66.371021	-30.355077	10.641609	-55.478952	10.946673	-19.859865	-59.841372	-7.833849	15.787846	-27.777283	12.047534	-22.549592	-21.142675	-19.628389	30.437461	-11.703018	3.400553	-10.382816	-4.669285	-32.303296	10.032835	-2.867154	12.570534	-9.678524	2.285911	-12.160594	32.306072	-8.763574	-1.296379	3.020184	-7.985468	-41.957115
271	4.774371639784946	9.432469	-66.304450	-29.573111	10.975284	-55.452403	11.501778	-19.457032	-59.728867	-6.730376	16.398144	-27.639540	12.996152	-22.647646	-20.836723	-18.635301	30.797475	-11.596355	4.743080	-11.442427	-4.498553	-31.952508	10.017622	-2.833594	12.571215	-9.656908	2.256617	-12.161547	32.520802	-8.664868	0.191583	1.660473	-7.991141	-41.618650
272	4.791989247311828	9.544711	-66.287613	-29.739256	11.050694	-55.410685	11.354433	-19.313333	-59.694723	-6.953898	16.535916	-27.626816	12.839666	-22.700476	-20.691536	-18.726921	30.876341	-11.571364	4.990178	-12.265039	-4.401618	-32.011201	10.004831	-2.825367	12.572017	-9.640129	2.249789	-12.162432	32.547445	-8.794199	0.520011	0.521925	-7.982725	-41.694799
273	4.80960685483871	9.681166	-66.190002	-29.798028	11.216104	-55.215430	11.209776	-19.249944	-59.634238	-6.898094	16.793058	-27.489496	12.663028	-22.769046	-20.529628	-18.737110	30.957672	-11.478832	4.671598	-13.043096	-4.206634	-32.098619	9.994963	-2.815547	12.559791	-9.627679	2.240647	-12.150661	32.538978	-8.770261	0.174785	-0.576169	-7.886179	-41.852742
